<svg width="40" height="40" viewBox="0 0 40 40" fill="none" xmlns="http://www.w3.org/2000/svg">
    <path d="M5.46875 32.2867L5.7109 31.9476L17.1659 10.2123L17.1901 9.9822L12.1405 0.49727C11.7174 -0.297264 10.5264 -0.0963782 10.3876 0.793041L5.46875 32.2867Z" fill="#FFC24A"/>
    <path d="M5.61157 32.0281L5.79475 31.6709L17.1297 10.1633L12.0928 0.63981C11.6741 -0.146399 10.6111 0.0540223 10.4737 0.934122L5.61157 32.0281Z" fill="#FFA712"/>
    <path d="M20.8713 17.1566L24.6311 13.306L20.8702 6.12646C20.5132 5.44686 19.5164 5.4449 19.1631 6.12646L17.1539 9.95854V10.2849L20.8713 17.1566Z" fill="#F4BD62"/>
    <path d="M20.8042 16.9962L24.4595 13.2527L20.8042 6.29249C20.4571 5.63179 19.6139 5.56257 19.2705 6.22517L17.2506 10.1166L17.1902 10.3156L20.8042 16.9962Z" fill="#FFA50E"/>
    <path d="M5.46875 32.2867L5.57851 32.1763L5.97732 32.0142L20.6351 17.4109L20.8208 16.9054L17.1643 9.93764L5.46875 32.2867Z" fill="#F6820C"/>
    <path d="M21.3408 39.6514L34.6063 32.2531L30.8181 8.92274C30.6996 8.19279 29.8041 7.90421 29.2817 8.42761L5.46875 32.2867L18.6583 39.6508C19.4918 40.1162 20.507 40.1164 21.3408 39.6514Z" fill="#FDE068"/>
    <path d="M34.4875 32.1911L30.728 9.03781C30.6104 8.31341 29.8657 8.01365 29.3473 8.53307L5.61584 32.2414L18.6605 39.5326C19.4877 39.9945 20.4952 39.9947 21.3226 39.5332L34.4875 32.1911Z" fill="#FCCA3F"/>
    <path d="M21.3408 39.4335C20.507 39.8984 19.4918 39.8982 18.6583 39.4328L5.57498 32.1745L5.46875 32.2867L18.6583 39.6508C19.4918 40.1162 20.507 40.1164 21.3408 39.6514L34.6063 32.2531L34.5739 32.0532L21.3408 39.4335Z" fill="#EEAB37"/>
</svg>
