<svg width="33" height="37" viewBox="0 0 33 37" fill="none" xmlns="http://www.w3.org/2000/svg">
    <path fill-rule="evenodd" clip-rule="evenodd" d="M10.1411 22.6408C9.54164 23.0086 8.63852 23.6044 7.93985 24.2524C6.79284 25.3151 6.55282 26.7891 7.15791 27.1335C7.71762 27.4518 9.02434 27.0731 9.95955 26.0723C10.941 25.0217 11.3458 23.6897 10.9278 22.1777C10.8787 22.2064 10.8304 22.2353 10.7831 22.2621L10.7842 22.2641L10.7207 22.2994C10.4767 22.4423 10.2773 22.5602 10.1411 22.6408ZM26.9854 22.1638C26.6458 22.8877 26.6288 23.1207 26.7319 23.1931C27.2246 23.0195 28.0397 22.601 28.0461 21.4796C28.0472 21.3117 28.0094 21.1315 27.9488 20.9432C27.4221 21.4007 27.1185 21.8798 26.9854 22.1638ZM32.2718 19.9751C30.9557 19.8246 29.9287 20.0057 29.1317 20.3315C29.2792 20.7083 29.3927 21.1009 29.4087 21.4963C29.4457 22.3643 28.8367 23.0066 28.2021 23.4651C27.8315 23.7325 27.4372 23.9107 27.1061 24.0183C26.8415 24.1278 26.4897 24.241 26.24 24.1911C25.6896 24.0813 25.3966 23.6016 25.7711 22.5435C25.9733 21.9708 26.5567 21.0991 27.4985 20.3483C27.2839 19.9148 27.0447 19.473 26.9227 19.0672C26.6824 18.2672 26.6099 17.7836 26.6099 17.7836C26.6099 17.7836 25.8336 19.3625 24.8321 20.7984C24.7744 20.8818 24.7167 20.9637 24.659 21.0452C24.8557 21.4937 25.0106 21.9679 25.0317 22.4461C25.0685 23.3139 24.6855 23.9701 24.05 24.4277C23.706 24.6766 23.339 24.8484 23.0241 24.9578C22.8227 25.0441 22.4132 25.186 21.8308 25.2241C21.5123 25.2455 21.2059 25.2262 21.0348 25.0989C20.7993 24.9244 20.7709 24.7091 20.8929 24.4148C20.996 24.165 21.7675 23.301 22.4143 22.5445C22.593 22.3356 22.7632 22.1221 22.9154 21.9244L22.9117 21.9159C22.9117 21.9159 23.0288 21.7676 23.219 21.5086C22.9826 21.0092 22.6829 20.4893 22.542 20.0178C22.3017 19.2178 22.229 18.7341 22.229 18.7341C22.229 18.7341 21.4421 20.7131 20.6224 22.2929C19.9881 23.5165 19.5644 24.258 19.3734 24.5828L19.3715 24.5959C19.3715 24.5959 19.343 24.6433 19.2939 24.7175L19.2572 24.7777L19.2561 24.7722C19.0433 25.0805 18.5659 25.6846 18.0912 25.6846C16.7882 25.6846 17.2666 23.0884 17.2666 23.0884C17.2666 23.0884 16.8857 24.05 16.4563 24.8752C16.1066 25.5481 15.7879 26.1183 15.0911 26.1183C14.8906 26.1183 14.5729 26.1126 14.309 25.8665C13.7105 25.3086 13.2529 23.8921 13.3426 22.795C13.4191 21.8622 13.5657 21.2161 13.7662 20.677C13.4087 20.8681 12.9956 21.0947 12.5748 21.337L11.928 21.7109L11.9488 21.7481C12.4839 22.7636 12.6268 24.9885 11.4599 26.6965C10.2932 28.4052 8.12122 29.4449 6.0051 28.8676C5.32228 28.6809 4.29077 27.2951 5.18048 25.3635C5.96527 23.6602 9.10168 22.0497 9.92823 21.6478L10.1551 21.5253C8.50717 20.1107 4.39196 18.2023 3.81524 15.271C3.65256 14.4458 4.04688 12.4724 6.5166 10.2039C8.59392 8.29642 11.4836 6.83537 14.153 5.90434C18.6377 4.34034 23.376 5.2629 24.105 8.06803C24.8217 10.8267 22.3823 14.1266 19.2581 15.3128C16.4687 16.3718 14.1624 16.2039 13.215 15.8986C12.1379 15.5515 11.5063 14.8543 11.3523 14.4607C11.2917 14.3067 11.1875 14.0478 11.3523 13.9586C11.4533 13.9039 11.4939 13.9169 11.7644 14.2102C12.0217 14.4887 13.056 15.2359 15.0209 15.0196C20.1772 14.4525 23.2832 10.5196 22.3017 8.40316C21.6144 6.92175 17.6402 6.25338 12.675 8.68252C6.61392 11.6472 6.28495 14.0913 6.233 15.0196C6.09108 17.573 9.44303 18.9162 11.2567 20.8152L11.3266 20.8904C11.666 20.7067 12.0245 20.5127 12.3762 20.3234C13.2906 19.8304 14.153 19.3681 14.5548 19.1527C15.1931 18.2424 16.4884 17.2379 17.4236 17.2379C18.9185 17.2379 18.4051 19.3459 18.4051 19.3459C18.4051 19.3459 18.4354 19.2494 18.476 19.2485C18.5185 19.2474 18.6832 18.9708 19.1446 19.136C19.6193 19.3068 19.5114 19.6336 19.5143 19.667C19.52 19.7319 18.9536 21.606 18.7182 22.808C18.6056 23.3817 18.6708 23.7995 18.704 23.7995C18.7503 23.7995 18.8449 23.6537 18.9328 23.4969L18.9309 23.4922C18.9309 23.4922 18.997 23.3735 19.1078 23.16L19.1296 23.1153L19.1305 23.1174C19.261 22.8667 19.4443 22.4982 19.6561 22.0415C20.0712 21.144 21.655 17.6789 21.7893 17.2955C21.9235 16.9122 21.9935 16.5159 22.0597 16.3459C22.125 16.1761 22.6848 16.048 23.339 16.0526C23.9933 16.0573 24.0597 16.3311 24.0642 16.3878C24.069 16.4443 23.7532 17.2046 23.6803 17.742C23.6085 18.2794 23.6776 18.5476 23.7372 18.9988C23.776 19.2938 23.9641 19.668 24.1864 20.0922C24.8634 19.0061 26.0547 16.9288 26.1691 16.3468C26.2475 15.9487 26.3733 15.5671 26.4396 15.3972C26.5057 15.2273 27.0646 15.0994 27.7188 15.1039C28.3732 15.1086 28.4393 15.3824 28.4441 15.439C28.4488 15.4957 28.132 16.2559 28.0602 16.7934C27.9883 17.3298 28.0575 17.5991 28.1169 18.0502C28.1681 18.4363 28.4724 18.9551 28.7742 19.5454C29.5976 19.1471 30.5669 18.8799 31.7017 18.8743C32.1715 18.8717 32.7172 18.918 32.999 19.0042V10.124C32.999 9.49746 32.6717 8.92015 32.1187 8.6074L17.3528 0.234656C16.8007 -0.0782186 16.1246 -0.0782186 15.5724 0.234656L0.847301 8.60335C0.295066 8.91623 0 9.49455 0 10.12V26.8727C0 27.4982 0.296871 28.0766 0.848203 28.3893L15.597 36.7646C16.1491 37.0785 16.8187 37.0785 17.3708 36.7646L32.1263 28.3893C32.6784 28.0756 33 27.4981 33 26.8727V20.1023C32.8127 20.0482 32.5385 20.0056 32.2718 19.9751ZM16.3864 19.0978C16.0697 19.4458 15.5299 20.3434 15.2773 21.0946C14.7752 22.5861 14.9927 24.1019 15.3482 24.1929C15.7633 24.2996 16.4442 22.3058 16.7702 21.5261C16.9745 21.0378 17.7688 18.8705 17.5948 18.5809C17.4589 18.3544 16.8961 18.5373 16.3864 19.0978ZM22.1309 24.125C22.1309 24.125 22.0307 24.218 22.074 24.2439C22.1327 24.2783 22.2594 24.2337 22.3975 24.1631C22.788 23.9219 23.6645 23.3203 23.6664 22.4302C23.6664 22.4042 23.6654 22.3792 23.6636 22.3522C23.4603 22.614 23.273 22.847 23.1113 23.0446C22.8352 23.3815 22.1309 24.125 22.1309 24.125Z" fill="#8CC84B"/>
</svg>
