<svg width="39" height="39" viewBox="0 0 39 39" fill="none" xmlns="http://www.w3.org/2000/svg">
    <path d="M33.6584 5.16015C30.0369 -0.0230569 22.8846 -1.55938 17.7131 1.73553L8.63077 7.52414C6.14989 9.08492 4.44109 11.6184 3.9234 14.5033C3.49015 16.9067 3.87096 19.3858 5.00551 21.5483C4.22808 22.7276 3.69784 24.0523 3.44684 25.4424C2.92415 28.3827 3.60788 31.4096 5.34367 33.8398C8.96586 39.0235 16.1182 40.5592 21.2889 37.2644L30.3713 31.4758C32.8523 29.9152 34.5612 27.3816 35.0786 24.4966C35.5118 22.0933 35.1313 19.6142 33.9973 17.4514C34.7745 16.2722 35.3046 14.9475 35.5553 13.5576C36.0784 10.6172 35.3946 7.59019 33.6585 5.16015" fill="#FF3E00"/>
    <path d="M16.825 34.3329C13.8966 35.0943 10.8041 33.948 9.07946 31.4619C8.0351 30.0001 7.6237 28.1792 7.93816 26.4104C7.99088 26.1229 8.06342 25.8394 8.15527 25.562L8.32636 25.0403L8.79182 25.3822C9.86676 26.172 11.0686 26.7725 12.3457 27.1578L12.6834 27.2602L12.6523 27.5972C12.611 28.0767 12.7408 28.5552 13.0187 28.9481C13.5377 29.6969 14.4688 30.0425 15.3507 29.8136C15.5482 29.7608 15.7364 29.6781 15.9088 29.5684L24.9941 23.7787C25.4435 23.4957 25.7533 23.0367 25.8476 22.514C25.9418 21.9809 25.8179 21.4323 25.5037 20.9914C24.9844 20.2424 24.053 19.8966 23.1707 20.1254C22.9735 20.1781 22.7856 20.2608 22.6134 20.3704L19.1466 22.5805C18.5765 22.9429 17.9543 23.2161 17.3017 23.3906C14.3733 24.152 11.2808 23.0057 9.55624 20.5195C8.51183 19.0578 8.10043 17.2369 8.41494 15.4681C8.72628 13.7328 9.75429 12.209 11.2468 11.2704L20.3312 5.4803C20.9016 5.11724 21.5242 4.84369 22.1773 4.66918C25.1057 3.90779 28.1981 5.05408 29.9227 7.54021C30.9671 9.002 31.3785 10.8229 31.064 12.5917C31.0111 12.8791 30.9386 13.1626 30.8469 13.4401L30.6758 13.9618L30.2106 13.6204C29.1358 12.8302 27.9338 12.2294 26.6565 11.844L26.3189 11.7415L26.35 11.4045C26.3909 10.9252 26.2611 10.4468 25.9835 10.0538C25.4645 9.30488 24.5334 8.95929 23.6515 9.1882C23.454 9.24098 23.2658 9.32369 23.0934 9.43345L14.0081 15.2234C13.5587 15.5062 13.2491 15.9651 13.1552 16.4877C13.0605 17.0208 13.1842 17.5696 13.4985 18.0105C14.0179 18.7595 14.9492 19.1053 15.8315 18.8765C16.0289 18.8237 16.217 18.741 16.3895 18.6313L19.8559 16.4221C20.4257 16.0591 21.0478 15.7857 21.7006 15.6113C24.629 14.8499 27.7214 15.9962 29.446 18.4823C30.4904 19.9441 30.9018 21.765 30.5873 23.5338C30.2758 25.2692 29.2478 26.7932 27.7555 27.7321L18.671 33.5218C18.1006 33.8848 17.4781 34.1584 16.8249 34.3329" fill="white"/>
</svg>
