<svg width="32" height="38" viewBox="0 0 32 38" fill="none" xmlns="http://www.w3.org/2000/svg">
    <path d="M16 7.57031C11.7333 7.57031 9.06667 10.1036 8 15.1703C9.6 12.637 11.4667 11.687 13.6 12.3203C14.8172 12.6817 15.6872 13.7303 16.6501 14.891C18.2188 16.7819 20.0344 18.9703 24 18.9703C28.2667 18.9703 30.9333 16.437 32 11.3703C30.4 13.9036 28.5333 14.8536 26.4 14.2203C25.1828 13.859 24.3128 12.8104 23.3499 11.6496C21.7812 9.75876 19.9656 7.57031 16 7.57031ZM8 18.9703C3.73333 18.9703 1.06667 21.5036 0 26.5703C1.6 24.037 3.46667 23.087 5.6 23.7203C6.81719 24.0817 7.68717 25.1303 8.65013 26.291C10.2188 28.1819 12.0344 30.3703 16 30.3703C20.2667 30.3703 22.9333 27.837 24 22.7703C22.4 25.3036 20.5333 26.2536 18.4 25.6203C17.1828 25.259 16.3128 24.2104 15.3499 23.0496C13.7812 21.1588 11.9656 18.9703 8 18.9703Z" fill="url(#paint0_linear_127_807)"/>
    <path d="M16 7.57031C11.7333 7.57031 9.06667 10.1036 8 15.1703C9.6 12.637 11.4667 11.687 13.6 12.3203C14.8172 12.6817 15.6872 13.7303 16.6501 14.891C18.2188 16.7819 20.0344 18.9703 24 18.9703C28.2667 18.9703 30.9333 16.437 32 11.3703C30.4 13.9036 28.5333 14.8536 26.4 14.2203C25.1828 13.859 24.3128 12.8104 23.3499 11.6496C21.7812 9.75876 19.9656 7.57031 16 7.57031ZM8 18.9703C3.73333 18.9703 1.06667 21.5036 0 26.5703C1.6 24.037 3.46667 23.087 5.6 23.7203C6.81719 24.0817 7.68717 25.1303 8.65013 26.291C10.2188 28.1819 12.0344 30.3703 16 30.3703C20.2667 30.3703 22.9333 27.837 24 22.7703C22.4 25.3036 20.5333 26.2536 18.4 25.6203C17.1828 25.259 16.3128 24.2104 15.3499 23.0496C13.7812 21.1588 11.9656 18.9703 8 18.9703Z" fill="url(#paint1_linear_127_807)"/>
    <defs>
        <linearGradient id="paint0_linear_127_807" x1="-0.888889" y1="14.8663" x2="28.9109" y2="29.3352" gradientUnits="userSpaceOnUse">
            <stop stop-color="#2298BD"/>
            <stop offset="1" stop-color="#0ED7B5"/>
        </linearGradient>
        <linearGradient id="paint1_linear_127_807" x1="-0.888889" y1="14.8663" x2="28.9109" y2="29.3352" gradientUnits="userSpaceOnUse">
            <stop stop-color="#2298BD"/>
            <stop offset="1" stop-color="#0ED7B5"/>
        </linearGradient>
    </defs>
</svg>
