<svg width="39" height="39" viewBox="0 0 39 39" fill="none" xmlns="http://www.w3.org/2000/svg">
    <g clip-path="url(#clip0_127_601)">
        <path d="M3.04688 0H35.9531C37.6359 0 39 1.36413 39 3.04688V35.9531C39 37.6359 37.6359 39 35.9531 39H3.04688C1.36413 39 0 37.6359 0 35.9531V3.04688C0 1.36413 1.36413 0 3.04688 0Z" fill="#3178C6"/>
        <path d="M22.9305 30.5411V34.7488C23.6148 35.0995 24.4242 35.3625 25.3585 35.5378C26.2929 35.7132 27.2776 35.8008 28.3129 35.8008C29.3218 35.8008 30.2803 35.7043 31.1883 35.5115C32.0962 35.3186 32.8925 35.0008 33.5767 34.5583C34.261 34.1156 34.8028 33.537 35.2021 32.8225C35.6012 32.1081 35.8008 31.225 35.8008 30.1731C35.8008 29.4104 35.6867 28.7419 35.4586 28.1677C35.2306 27.5936 34.9015 27.0829 34.4716 26.6359C34.0418 26.1888 33.5263 25.7878 32.9254 25.4327C32.3245 25.0778 31.6467 24.7425 30.8921 24.4269C30.3394 24.1989 29.8438 23.9777 29.4051 23.7629C28.9665 23.5481 28.5936 23.329 28.2866 23.1054C27.9795 22.8819 27.7426 22.6451 27.5759 22.3953C27.4092 22.1454 27.3259 21.8629 27.3259 21.5472C27.3259 21.2579 27.4004 20.9972 27.5495 20.7649C27.6987 20.5326 27.9094 20.3332 28.1813 20.1667C28.4532 20 28.7866 19.8708 29.1814 19.7786C29.5762 19.6866 30.0149 19.6406 30.4974 19.6406C30.8484 19.6406 31.219 19.667 31.6093 19.7195C31.9998 19.7721 32.3924 19.8531 32.7873 19.9628C33.182 20.0724 33.5657 20.2104 33.9387 20.377C34.3115 20.5436 34.6559 20.7364 34.9717 20.9555V17.024C34.3313 16.7785 33.6316 16.5966 32.8727 16.4783C32.1139 16.3599 31.2431 16.3008 30.2605 16.3008C29.2604 16.3008 28.3129 16.4082 27.4181 16.623C26.5232 16.8376 25.7357 17.1729 25.0558 17.6288C24.3759 18.0847 23.8386 18.6655 23.4437 19.3711C23.049 20.0768 22.8516 20.9205 22.8516 21.9023C22.8516 23.1558 23.2134 24.2252 23.9373 25.1107C24.6611 25.9959 25.7598 26.7455 27.2337 27.3591C27.8128 27.5959 28.3524 27.828 28.8524 28.0561C29.3525 28.284 29.7846 28.5206 30.1487 28.766C30.5128 29.0114 30.8001 29.2788 31.0106 29.5681C31.2212 29.8574 31.3264 30.1862 31.3264 30.5544C31.3264 30.826 31.2606 31.0781 31.129 31.3104C30.9975 31.5426 30.7978 31.7443 30.5303 31.9153C30.2628 32.0862 29.9293 32.2198 29.5302 32.3162C29.131 32.4127 28.6638 32.4609 28.1286 32.4609C27.2162 32.4609 26.3127 32.301 25.4178 31.9809C24.5228 31.661 23.6937 31.1811 22.9305 30.5411ZM15.9172 20.0701H21.3281V16.6055H6.24609V20.0701H11.6306V35.4961H15.9172V20.0701Z" fill="white"/>
    </g>
    <defs>
        <clipPath id="clip0_127_601">
            <rect width="39" height="39" fill="white"/>
        </clipPath>
    </defs>
</svg>
